<svg width="284" height="145" viewBox="0 0 284 145" fill="none" xmlns="http://www.w3.org/2000/svg">
<g clip-path="url(#clip0_11764_3479)">
<path d="M196.487 127.681L193.181 132.877L195.107 126.113C191.041 121.873 185.412 118.771 185.412 118.771C185.412 118.771 178.481 130.156 180.346 137.16C182.212 144.163 187.029 145.5 192.167 144.133C197.306 142.766 200.82 139.212 198.955 132.208C198.54 130.65 197.638 129.119 196.487 127.681Z" fill="#F2F2F2"/>
<path d="M192.113 133.394L192.205 133.74C193.253 137.758 193.41 141.069 192.669 143.627C192.659 143.664 192.646 143.701 192.636 143.738L192.463 143.687L192.298 143.636C193.138 140.863 192.763 137.359 191.849 133.854C191.821 133.741 191.792 133.626 191.76 133.512C191.36 132.032 190.87 130.557 190.337 129.14C190.297 129.03 190.254 128.918 190.212 128.807C189.498 126.94 188.719 125.182 187.997 123.666C187.946 123.559 187.894 123.452 187.842 123.347C186.609 120.787 185.564 118.973 185.329 118.573C185.301 118.524 185.285 118.497 185.281 118.49L185.431 118.401L185.433 118.399L185.585 118.309C185.588 118.315 185.643 118.405 185.739 118.574C186.102 119.202 187.067 120.912 188.179 123.211C188.229 123.315 188.281 123.422 188.332 123.53C188.919 124.759 189.542 126.141 190.134 127.609C190.284 127.977 190.427 128.342 190.563 128.703C190.607 128.813 190.65 128.925 190.69 129.035C191.267 130.567 191.741 132.02 192.113 133.394Z" fill="white"/>
<path d="M188.179 123.211C188.069 123.257 187.957 123.304 187.842 123.347C187.53 123.465 187.213 123.567 186.891 123.653C185.519 124.02 184.082 124.075 182.685 123.813C182.638 123.923 182.59 124.032 182.541 124.144C184.013 124.433 185.532 124.382 186.982 123.995C187.326 123.903 187.664 123.794 187.997 123.666C188.11 123.623 188.222 123.577 188.332 123.529C189.242 123.142 190.087 122.619 190.839 121.978C190.741 121.904 190.644 121.831 190.55 121.759C189.836 122.357 189.037 122.846 188.179 123.211Z" fill="white"/>
<path d="M190.563 128.702C190.447 128.741 190.33 128.775 190.212 128.807C190.176 128.818 190.139 128.828 190.103 128.838C188.615 129.233 187.054 129.264 185.553 128.926C184.051 128.589 182.653 127.893 181.478 126.899C181.437 127.018 181.395 127.137 181.356 127.258C182.57 128.257 184.006 128.952 185.542 129.286C187.079 129.62 188.674 129.584 190.194 129.179C190.242 129.167 190.29 129.154 190.337 129.139C190.456 129.106 190.573 129.071 190.69 129.035C192.491 128.455 194.086 127.37 195.286 125.908C195.205 125.822 195.123 125.736 195.04 125.65C193.877 127.081 192.321 128.142 190.563 128.702Z" fill="white"/>
<path d="M192.113 133.395C191.996 133.437 191.878 133.475 191.76 133.512C191.633 133.552 191.506 133.589 191.378 133.623C189.378 134.153 187.261 134.021 185.343 133.247C183.425 132.473 181.81 131.1 180.738 129.331C180.698 129.49 180.658 129.647 180.621 129.805C181.762 131.55 183.425 132.891 185.372 133.638C187.319 134.385 189.453 134.499 191.469 133.965C191.597 133.931 191.725 133.895 191.849 133.855C191.97 133.819 192.088 133.78 192.205 133.74C194.572 132.907 196.535 131.207 197.695 128.983C197.625 128.866 197.551 128.752 197.476 128.637C196.376 130.859 194.452 132.566 192.113 133.395Z" fill="white"/>
<path d="M179.454 9.37239L176.147 14.5675L178.073 7.8044C174.007 3.56395 168.378 0.461914 168.378 0.461914C168.378 0.461914 161.447 11.8473 163.312 18.8508C165.178 25.8544 169.995 27.1913 175.134 25.824C180.272 24.4567 183.787 20.9029 181.921 13.8993C181.506 12.3405 180.604 10.8101 179.454 9.37239Z" fill="#F2F2F2"/>
<path d="M175.079 15.0853L175.171 15.4305C176.219 19.4487 176.376 22.7597 175.635 25.3178C175.625 25.3553 175.612 25.3915 175.602 25.429L175.429 25.378L175.264 25.3269C176.103 22.5541 175.729 19.0503 174.815 15.5453C174.787 15.432 174.758 15.3171 174.726 15.203C174.326 13.7227 173.836 12.248 173.303 10.8306C173.263 10.7206 173.22 10.6093 173.178 10.4979C172.464 8.63072 171.685 6.87261 170.962 5.35729C170.912 5.24995 170.86 5.14308 170.808 5.0379C169.575 2.47808 168.53 0.664384 168.295 0.263853C168.267 0.21451 168.251 0.187739 168.247 0.181362L168.397 0.0919931L168.398 0.0898268L168.55 0C168.554 0.00638581 168.609 0.0960684 168.705 0.264483C169.068 0.892551 170.033 2.60323 171.145 4.90236C171.195 5.00628 171.247 5.11317 171.298 5.22049C171.885 6.4496 172.508 7.83216 173.1 9.29969C173.25 9.66806 173.393 10.0327 173.529 10.3935C173.573 10.5044 173.616 10.6157 173.656 10.7257C174.232 12.2579 174.707 13.711 175.079 15.0853Z" fill="white"/>
<path d="M171.145 4.90225C171.035 4.94813 170.923 4.99445 170.808 5.03779C170.496 5.15601 170.179 5.2582 169.857 5.34395C168.484 5.71103 167.047 5.76572 165.651 5.50399C165.603 5.61367 165.556 5.72336 165.507 5.8352C166.979 6.1242 168.498 6.07308 169.948 5.68575C170.292 5.59417 170.63 5.48448 170.962 5.35716C171.076 5.31426 171.188 5.26794 171.298 5.22037C172.207 4.83318 173.053 4.31017 173.805 3.66924C173.707 3.59481 173.61 3.52163 173.516 3.44971C172.802 4.04792 172.003 4.53739 171.145 4.90225Z" fill="white"/>
<path d="M173.529 10.3933C173.413 10.4315 173.296 10.4663 173.178 10.4977C173.142 10.509 173.105 10.519 173.069 10.5285C171.581 10.9243 170.02 10.9548 168.518 10.6173C167.017 10.2798 165.619 9.58437 164.444 8.5903C164.403 8.70932 164.361 8.82836 164.322 8.94863C165.536 9.94758 166.971 10.6429 168.508 10.9771C170.045 11.3113 171.64 11.2747 173.16 10.8703C173.208 10.8576 173.255 10.8449 173.303 10.8304C173.422 10.7969 173.539 10.762 173.656 10.7255C175.457 10.1463 177.052 9.0609 178.252 7.59917C178.171 7.51291 178.089 7.42663 178.006 7.34082C176.842 8.77203 175.286 9.83287 173.529 10.3933Z" fill="white"/>
<path d="M175.079 15.0855C174.962 15.1276 174.844 15.1662 174.726 15.2032C174.599 15.2425 174.472 15.28 174.343 15.3141C172.344 15.8437 170.227 15.7117 168.309 14.938C166.391 14.1643 164.776 12.7905 163.704 11.0223C163.664 11.1812 163.624 11.3384 163.587 11.4964C164.728 13.2412 166.391 14.5823 168.338 15.329C170.285 16.0757 172.418 16.1901 174.434 15.6559C174.563 15.6218 174.691 15.586 174.815 15.5455C174.936 15.5098 175.054 15.4711 175.171 15.4307C177.538 14.5984 179.501 12.898 180.661 10.6739C180.591 10.557 180.517 10.4432 180.442 10.3276C179.341 12.5503 177.418 14.2569 175.079 15.0855Z" fill="white"/>
<path d="M88.5362 136.402L82.376 136.43L89.11 134.394C90.4818 128.682 90.0505 122.272 90.0505 122.272C90.0505 122.272 76.72 122.598 71.8329 127.952C66.9458 133.306 68.4241 138.08 72.3526 141.662C76.2811 145.244 81.1722 146.278 86.0593 140.924C87.1471 139.732 87.9478 138.146 88.5362 136.402Z" fill="#F2F2F2"/>
<path d="M81.3622 135.811L81.1213 136.075C78.3056 139.129 75.6032 141.05 73.0491 141.81C73.012 141.821 72.9749 141.83 72.9378 141.842L72.8873 141.669L72.8408 141.502C75.6289 140.71 78.3757 138.501 80.8324 135.838C80.9124 135.753 80.9936 135.667 81.0722 135.578C82.1022 134.442 83.0788 133.233 83.9838 132.018C84.0546 131.925 84.1254 131.829 84.1961 131.733C85.3823 130.124 86.4409 128.518 87.3261 127.092C87.3891 126.991 87.4508 126.889 87.5113 126.789C88.9997 124.369 89.9615 122.509 90.1717 122.095C90.1982 122.045 90.2119 122.017 90.2154 122.011L90.3718 122.089L90.3743 122.089L90.532 122.168C90.5285 122.174 90.4827 122.269 90.3929 122.441C90.0606 123.086 89.142 124.822 87.8078 127C87.7472 127.097 87.6855 127.199 87.6224 127.3C86.9053 128.458 86.0781 129.729 85.1629 131.02C84.9336 131.345 84.7039 131.662 84.4739 131.972C84.4044 132.069 84.3337 132.165 84.2628 132.258C83.2848 133.571 82.3179 134.756 81.3622 135.811Z" fill="white"/>
<path d="M87.8081 127C87.7098 126.932 87.6102 126.862 87.5116 126.789C87.2437 126.591 86.9861 126.379 86.7398 126.155C85.6891 125.199 84.8663 124.021 84.3319 122.705C84.2138 122.724 84.0957 122.743 83.9751 122.763C84.5277 124.157 85.3917 125.407 86.5013 126.416C86.7642 126.656 87.0396 126.881 87.3264 127.092C87.4236 127.164 87.5232 127.233 87.6227 127.3C88.4403 127.856 89.3375 128.284 90.2838 128.57C90.2931 128.447 90.3026 128.326 90.3122 128.208C89.4225 127.931 88.5787 127.524 87.8081 127Z" fill="white"/>
<path d="M84.4742 131.972C84.3793 131.895 84.2867 131.815 84.1965 131.733C84.1679 131.709 84.1391 131.683 84.1116 131.658C82.9745 130.621 82.1051 129.325 81.5775 127.88C81.0499 126.435 80.8798 124.883 81.0816 123.358C80.959 123.388 80.8364 123.417 80.7138 123.449C80.5294 125.01 80.7197 126.593 81.2691 128.066C81.8185 129.539 82.7112 130.86 83.8731 131.919C83.9097 131.953 83.9463 131.986 83.9841 132.018C84.0768 132.1 84.1694 132.18 84.2632 132.258C85.7241 133.46 87.5003 134.215 89.3793 134.434C89.4079 134.318 89.4364 134.203 89.4636 134.087C87.63 133.882 85.8961 133.147 84.4742 131.972Z" fill="white"/>
<path d="M81.3625 135.811C81.2638 135.736 81.1676 135.658 81.0725 135.578C80.9709 135.493 80.8704 135.406 80.7724 135.317C79.246 133.922 78.2128 132.07 77.8274 130.039C77.442 128.008 77.7252 125.907 78.6346 124.05C78.4791 124.102 78.3249 124.153 78.1721 124.208C77.3202 126.111 77.0898 128.233 77.5138 130.275C77.9378 132.316 78.9945 134.171 80.5339 135.578C80.6319 135.667 80.7312 135.755 80.8327 135.838C80.9279 135.92 81.0241 135.999 81.1216 136.075C83.1018 137.616 85.5938 138.347 88.093 138.12C88.1538 137.999 88.2095 137.875 88.2664 137.75C85.8005 138.025 83.3241 137.33 81.3625 135.811Z" fill="white"/>
<path d="M68.0846 141.233L71.6242 141.232L73.308 127.587L68.084 127.587L68.0846 141.233Z" fill="#FFB6B6"/>
<path d="M67.1816 140.078L74.1523 140.078H74.1526C75.3308 140.078 76.4606 140.545 77.2937 141.378C78.1268 142.211 78.5948 143.34 78.5949 144.517V144.662L67.1819 144.662L67.1816 140.078Z" fill="#2F2E41"/>
<path d="M40.0797 141.233L43.6193 141.232L45.3031 127.587L40.0791 127.587L40.0797 141.233Z" fill="#FFB6B6"/>
<path d="M39.1768 140.078L46.1475 140.078H46.1477C47.3259 140.078 48.4557 140.545 49.2888 141.378C50.1219 142.211 50.5899 143.34 50.59 144.517V144.662L39.177 144.662L39.1768 140.078Z" fill="#2F2E41"/>
<path d="M46.0826 85.1826L43.697 87.3771L41.0082 113.889L39.1982 134.999L44.6679 135.736L57.9349 99.6665L67.6423 135.565L74.1868 135.736L69.8431 88.8762L46.0826 85.1826Z" fill="#2F2E41"/>
<path d="M57.6111 45.9807C61.364 45.9807 64.4064 42.94 64.4064 39.1891C64.4064 35.4382 61.364 32.3975 57.6111 32.3975C53.8582 32.3975 50.8159 35.4382 50.8159 39.1891C50.8159 42.94 53.8582 45.9807 57.6111 45.9807Z" fill="#FFB9B9"/>
<path d="M54.1332 36.0356C54.1332 36.0356 53.3231 37.7879 56.5636 37.087C56.5636 37.087 57.7788 37.7879 57.7788 36.7365C57.7788 36.7365 59.399 38.4888 59.8041 37.4374C60.2092 36.386 61.0193 37.7879 61.0193 37.7879L61.8294 36.0356L62.6396 37.087H65.475C65.475 37.087 66.2851 30.0779 56.5636 30.7788C46.842 31.4797 51.6245 42.5849 51.6245 42.5849C51.6245 42.5849 51.7028 40.5915 52.5129 41.6429C53.3231 42.6943 54.1332 36.0356 54.1332 36.0356Z" fill="#2F2E41"/>
<path d="M62.7884 48.1972L53.2064 47.5977L44.6675 49.8615L45.9619 71.8534L43.6968 87.377C43.6968 87.377 56.1242 94.9697 70.2305 88.9941L68.8907 85.4712C68.8907 85.4712 68.8446 80.0795 67.7128 79.024C66.581 77.9686 66.6711 69.2661 66.6711 69.2661L70.8777 53.0956L62.7884 48.1972Z" fill="#3F3D56"/>
<path d="M46.9485 50.5554L44.6675 49.8613C44.6675 49.8613 41.1151 49.9799 39.268 54.0189C37.421 58.0579 36.2661 63.8291 36.2661 63.8291L47.9976 64.2531L46.9485 50.5554Z" fill="#3F3D56"/>
<path d="M74.1787 89.1086L73.7989 65.272L68.7305 66.0319L69.8499 88.6155C69.3892 88.9935 69.05 89.4989 68.8748 90.0684C68.6996 90.6379 68.6962 91.2463 68.8649 91.8178C69.0336 92.3893 69.367 92.8984 69.8235 93.2816C70.2799 93.6649 70.8392 93.9052 71.4315 93.9727C72.0238 94.0402 72.6229 93.9318 73.1539 93.661C73.685 93.3903 74.1244 92.9692 74.4175 92.4503C74.7105 91.9315 74.8441 91.3378 74.8017 90.7435C74.7592 90.1492 74.5425 89.5806 74.1787 89.1086Z" fill="#FFB9B9"/>
<path d="M68.0247 55.1726L70.8779 53.0957C70.8779 53.0957 76.3602 57.3811 76.3788 66.8092L68.7306 68.6633L64.4062 62.4468L68.0247 55.1726Z" fill="#3F3D56"/>
<path d="M221.896 141.219L225.436 141.219L227.119 127.574L221.896 127.574L221.896 141.219Z" fill="#9E616A"/>
<path d="M220.993 140.064L227.964 140.064C229.142 140.064 230.272 140.532 231.105 141.364C231.938 142.197 232.406 143.326 232.406 144.504V144.648L220.993 144.648L220.993 140.064Z" fill="#2F2E41"/>
<path d="M200.946 138.211L204.321 139.278L210.044 126.775L205.063 125.201L200.946 138.211Z" fill="#9E616A"/>
<path d="M200.434 136.837L207.08 138.938C208.203 139.294 209.139 140.08 209.682 141.125C210.225 142.17 210.331 143.388 209.975 144.511L209.932 144.648L199.05 141.208L200.434 136.837Z" fill="#2F2E41"/>
<path d="M208.915 78.8994L206.951 84.4362L206.895 114.327L201.325 134.793L208.163 136.7L215.716 117.403L218.139 100.453L221.331 117.501L220.892 137.764H228.066L228.607 106.539C228.759 97.7698 227.224 89.0529 224.085 80.8626L208.915 78.8994Z" fill="#2F2E41"/>
<path d="M206.577 56.4712H218.173L223.018 61.3141L224.465 81.3317L206.952 84.1483L201.326 65.0489L204.39 56.9314L206.577 56.4712Z" fill="#F28D22"/>
<path d="M202.406 65.2397L184.552 58.5258L184.087 55.7505L195.347 46.228L199.095 49.0374L192.302 56.471L204.389 56.9312L202.406 65.2397Z" fill="#F28D22"/>
<path d="M197.513 50.1227C199.107 50.1227 200.4 48.8308 200.4 47.2372C200.4 45.6435 199.107 44.3516 197.513 44.3516C195.918 44.3516 194.625 45.6435 194.625 47.2372C194.625 48.8308 195.918 50.1227 197.513 50.1227Z" fill="#9E616A"/>
<path d="M204.208 50.8723L205.513 44.9926C205.978 42.9047 207.254 41.0868 209.059 39.9384C210.865 38.79 213.053 38.4051 215.142 38.8682C217.232 39.3313 219.052 40.6046 220.202 42.4082C221.353 44.2119 221.74 46.3983 221.279 48.4871L219.974 54.3668C219.912 54.6473 219.74 54.8916 219.498 55.046C219.255 55.2004 218.961 55.2523 218.68 55.1904L205.032 52.1653C204.752 52.1028 204.507 51.9315 204.353 51.6891C204.198 51.4467 204.146 51.1529 204.208 50.8723Z" fill="#2F2E41"/>
<path d="M211.549 53.3224C214.818 53.3224 217.469 50.6733 217.469 47.4056C217.469 44.1378 214.818 41.4888 211.549 41.4888C208.279 41.4888 205.629 44.1378 205.629 47.4056C205.629 50.6733 208.279 53.3224 211.549 53.3224Z" fill="#9E616A"/>
<path d="M203.544 45.0497C203.912 43.3977 204.921 41.9593 206.35 41.05C207.778 40.1407 209.509 39.8348 211.162 40.1994L212.339 40.4602C213.992 40.8285 215.431 41.837 216.341 43.2646C217.251 44.6921 217.557 46.422 217.192 48.0748L217.166 48.1924L214.679 47.6413L214.358 45.0798L213.662 47.4157L212.377 47.1309L212.214 45.8385L211.863 47.0171L203.518 45.1673L203.544 45.0497Z" fill="#2F2E41"/>
<path d="M209.521 53.8539C209.439 53.67 209.411 53.4669 209.44 53.2678C209.469 53.0687 209.553 52.8817 209.684 52.7285C211.457 50.6346 214.174 46.6419 212.456 43.4273L212.333 43.1963L219.06 44.6873L216.82 54.7816L210.47 54.5047C210.406 54.5019 210.342 54.4936 210.279 54.4797C210.112 54.4427 209.956 54.3667 209.825 54.2579C209.693 54.1492 209.589 54.0107 209.521 53.8539Z" fill="#2F2E41"/>
<path d="M283.656 145H0.343746C0.252746 145 0.165563 144.964 0.10131 144.899C0.0370562 144.835 0.000976562 144.748 0.000976562 144.657C0.000976562 144.566 0.0370562 144.478 0.10131 144.414C0.165563 144.35 0.252746 144.313 0.343746 144.313H283.656C283.747 144.313 283.835 144.349 283.899 144.414C283.964 144.478 284 144.565 284 144.657C284 144.748 283.964 144.835 283.899 144.9C283.835 144.964 283.747 145 283.656 145Z" fill="#CACACA"/>
<path d="M143.19 59.9395H51.577C50.8815 59.9395 50.1929 60.0764 49.5504 60.3424C48.9079 60.6083 48.3241 60.9982 47.8323 61.4897C47.3406 61.9812 46.9505 62.5647 46.6844 63.2068C46.4182 63.849 46.2812 64.5373 46.2813 65.2324V87.2537C46.2812 87.9488 46.4182 88.637 46.6844 89.2792C46.9505 89.9214 47.3406 90.5049 47.8323 90.9963C48.3241 91.4878 48.9079 91.8777 49.5504 92.1437C50.1929 92.4097 50.8815 92.5466 51.577 92.5466H52.9217V96.5251C52.9217 96.7665 52.9933 97.0026 53.1275 97.2033C53.2617 97.404 53.4524 97.5605 53.6756 97.6528C53.8987 97.7452 54.1443 97.7694 54.3812 97.7223C54.6181 97.6752 54.8357 97.5589 55.0065 97.3882L59.8508 92.5466H143.19C143.885 92.5466 144.574 92.4097 145.217 92.1437C145.859 91.8777 146.443 91.4878 146.935 90.9963C147.426 90.5049 147.816 89.9214 148.083 89.2792C148.349 88.637 148.486 87.9488 148.486 87.2537V65.2324C148.486 64.5373 148.349 63.849 148.083 63.2068C147.816 62.5647 147.426 61.9812 146.935 61.4897C146.443 60.9982 145.859 60.6083 145.217 60.3424C144.574 60.0764 143.885 59.9395 143.19 59.9395Z" fill="#E6E6E6"/>
<path d="M121.157 89.8055H51.577C50.9001 89.8048 50.2511 89.5357 49.7725 89.0573C49.2939 88.579 49.0247 87.9304 49.0239 87.2539V65.2327C49.0247 64.5562 49.2939 63.9077 49.7725 63.4293C50.2511 62.951 50.9 62.6819 51.5768 62.6812H143.19C143.867 62.6819 144.516 62.951 144.994 63.4294C145.473 63.9077 145.742 64.5563 145.743 65.2328C145.735 71.7477 143.143 77.9936 138.534 82.6003C133.924 87.2069 127.675 89.7982 121.157 89.8055Z" fill="white"/>
<path d="M116.824 67.4424H78.1361C77.1794 67.4424 76.4038 68.2175 76.4038 69.1737V69.1737C76.4038 70.1299 77.1794 70.9051 78.1361 70.9051H116.824C117.78 70.9051 118.556 70.1299 118.556 69.1737C118.556 68.2175 117.78 67.4424 116.824 67.4424Z" fill="#F28D22"/>
<path d="M125.052 74.3677H69.9076C68.9509 74.3677 68.1753 75.1428 68.1753 76.099V76.099C68.1753 77.0552 68.9509 77.8304 69.9076 77.8304H125.052C126.008 77.8304 126.784 77.0552 126.784 76.099C126.784 75.1428 126.008 74.3677 125.052 74.3677Z" fill="#E6E6E6"/>
<path d="M125.052 81.293H69.9076C68.9509 81.293 68.1753 82.0681 68.1753 83.0243V83.0243C68.1753 83.9805 68.9509 84.7557 69.9076 84.7557H125.052C126.008 84.7557 126.784 83.9805 126.784 83.0243C126.784 82.0681 126.008 81.293 125.052 81.293Z" fill="#E6E6E6"/>
<path d="M273.711 75.2725H207.46C206.957 75.2725 206.459 75.3715 205.994 75.5638C205.529 75.7562 205.107 76.0381 204.752 76.3936C204.396 76.749 204.114 77.1709 203.921 77.6353C203.729 78.0997 203.63 78.5974 203.63 79.1001V95.0251C203.63 95.5278 203.729 96.0255 203.921 96.4899C204.114 96.9543 204.396 97.3763 204.752 97.7317C205.107 98.0871 205.529 98.3691 205.994 98.5614C206.459 98.7538 206.957 98.8528 207.46 98.8528H208.432V101.73C208.432 101.905 208.484 102.075 208.581 102.22C208.678 102.365 208.816 102.479 208.977 102.545C209.139 102.612 209.316 102.63 209.487 102.596C209.659 102.562 209.816 102.478 209.94 102.354L213.443 98.8528H273.711C274.214 98.8528 274.712 98.7538 275.176 98.5614C275.641 98.3691 276.063 98.0871 276.419 97.7317C276.774 97.3763 277.056 96.9543 277.249 96.4899C277.441 96.0255 277.54 95.5278 277.54 95.0252V79.1001C277.54 78.5974 277.441 78.0997 277.249 77.6353C277.056 77.1709 276.774 76.749 276.419 76.3936C276.063 76.0381 275.641 75.7562 275.176 75.5638C274.712 75.3715 274.214 75.2725 273.711 75.2725Z" fill="#E6E6E6"/>
<path d="M273.711 96.9104H207.459C206.959 96.9098 206.48 96.711 206.126 96.3576C205.773 96.0042 205.574 95.525 205.573 95.0252V79.1001C205.574 78.6002 205.773 78.121 206.126 77.7676C206.48 77.4142 206.959 77.2154 207.459 77.2148H257.777C262.502 77.2202 267.031 79.0984 270.372 82.4373C273.712 85.7762 275.592 90.3033 275.597 95.0252C275.596 95.525 275.397 96.0042 275.044 96.3576C274.69 96.711 274.211 96.9098 273.711 96.9104Z" fill="white"/>
<path d="M254.643 80.6982H226.666C225.974 80.6982 225.413 81.2588 225.413 81.9503C225.413 82.6418 225.974 83.2023 226.666 83.2023H254.643C255.335 83.2023 255.896 82.6418 255.896 81.9503C255.896 81.2588 255.335 80.6982 254.643 80.6982Z" fill="#F28D22"/>
<path d="M260.594 85.7065H220.716C220.024 85.7065 219.463 86.2671 219.463 86.9586C219.463 87.6501 220.024 88.2107 220.716 88.2107H260.594C261.286 88.2107 261.847 87.6501 261.847 86.9586C261.847 86.2671 261.286 85.7065 260.594 85.7065Z" fill="#E6E6E6"/>
<path d="M260.594 90.7144H220.716C220.024 90.7144 219.463 91.2749 219.463 91.9664C219.463 92.6579 220.024 93.2185 220.716 93.2185H260.594C261.286 93.2185 261.847 92.6579 261.847 91.9664C261.847 91.2749 261.286 90.7144 260.594 90.7144Z" fill="#E6E6E6"/>
<path d="M132.394 19.292H198.645C199.148 19.292 199.646 19.391 200.111 19.5834C200.576 19.7757 200.998 20.0577 201.353 20.4131C201.709 20.7685 201.991 21.1905 202.184 21.6549C202.376 22.1192 202.475 22.617 202.475 23.1196V39.0447C202.475 39.5473 202.376 40.0451 202.184 40.5095C201.991 40.9738 201.709 41.3958 201.353 41.7512C200.998 42.1067 200.576 42.3886 200.111 42.581C199.646 42.7733 199.148 42.8723 198.645 42.8723H197.673V45.7495C197.673 45.924 197.621 46.0947 197.524 46.2399C197.427 46.385 197.289 46.4982 197.128 46.565C196.966 46.6318 196.789 46.6493 196.617 46.6152C196.446 46.5811 196.289 46.4971 196.165 46.3736L192.662 42.8723H132.394C131.891 42.8723 131.393 42.7733 130.929 42.581C130.464 42.3886 130.042 42.1067 129.686 41.7512C129.331 41.3958 129.048 40.9739 128.856 40.5095C128.664 40.0451 128.564 39.5473 128.564 39.0447V23.1196C128.564 22.617 128.664 22.1192 128.856 21.6549C129.048 21.1905 129.331 20.7685 129.686 20.4131C130.042 20.0577 130.464 19.7757 130.929 19.5834C131.393 19.391 131.891 19.292 132.394 19.292Z" fill="#E6E6E6"/>
<path d="M198.645 40.9298H148.328C143.603 40.9245 139.074 39.0463 135.733 35.7075C132.392 32.3686 130.513 27.8416 130.508 23.1197C130.508 22.6199 130.707 22.1407 131.061 21.7872C131.414 21.4338 131.894 21.235 132.394 21.2344H198.645C199.145 21.2349 199.625 21.4337 199.978 21.7872C200.332 22.1406 200.531 22.6198 200.531 23.1196V39.0446C200.531 39.5444 200.332 40.0236 199.978 40.377C199.625 40.7304 199.145 40.9292 198.645 40.9298Z" fill="white"/>
<path d="M151.461 27.2217L179.439 27.2217C180.131 27.2217 180.691 26.6611 180.691 25.9696C180.691 25.2781 180.131 24.7176 179.439 24.7176L151.461 24.7176C150.769 24.7176 150.209 25.2781 150.209 25.9696C150.209 26.6611 150.769 27.2217 151.461 27.2217Z" fill="#F28D22"/>
<path d="M145.511 32.23L185.389 32.23C186.081 32.23 186.642 31.6694 186.642 30.9779C186.642 30.2864 186.081 29.7259 185.389 29.7259L145.511 29.7259C144.819 29.7259 144.258 30.2864 144.258 30.9779C144.258 31.6694 144.819 32.23 145.511 32.23Z" fill="#E6E6E6"/>
<path d="M145.511 37.2383L185.389 37.2383C186.081 37.2383 186.642 36.6777 186.642 35.9862C186.642 35.2947 186.081 34.7342 185.389 34.7342L145.511 34.7342C144.819 34.7342 144.258 35.2947 144.258 35.9862C144.258 36.6777 144.819 37.2383 145.511 37.2383Z" fill="#E6E6E6"/>
<path d="M56.0431 59.5011C56.0431 58.6975 55.7237 57.9268 55.1552 57.3586C54.5867 56.7904 53.8156 56.4712 53.0116 56.4712C52.2076 56.4712 51.4365 56.7904 50.868 57.3586C50.2995 57.9268 49.9801 58.6975 49.9801 59.5011C49.9801 59.5306 49.9836 59.5593 49.9845 59.5887L44.6677 64.9027L45.072 63.9737L39.009 63.6852L38.1245 70.0831C38.047 70.6737 38.1549 71.2738 38.4333 71.8006C38.7117 72.3273 39.1468 72.7547 39.6785 73.0237C40.2103 73.2927 40.8125 73.3901 41.4021 73.3024C41.9916 73.2146 42.5393 72.9462 42.9696 72.534L53.45 62.4957C54.17 62.3909 54.8282 62.0307 55.3043 61.4808C55.7804 60.931 56.0427 60.2282 56.0431 59.5011Z" fill="#FFB9B9"/>
<path d="M217.711 56.5923L236.597 59.2762L237.653 61.8847L228.728 73.6213L224.46 71.6911L229.477 62.9619L217.578 65.1331L217.711 56.5923Z" fill="#F28D22"/>
<path d="M226.095 76.9587C227.69 76.9587 228.982 75.6667 228.982 74.0731C228.982 72.4794 227.69 71.1875 226.095 71.1875C224.501 71.1875 223.208 72.4794 223.208 74.0731C223.208 75.6667 224.501 76.9587 226.095 76.9587Z" fill="#9E616A"/>
</g>
<defs>
<clipPath id="clip0_11764_3479">
<rect width="284" height="145" fill="white"/>
</clipPath>
</defs>
</svg>
